<svg xmlns="http://www.w3.org/2000/svg" fill="none" viewBox="0 0 44.99 44.99">
<path d="M22.4961 44.9922C34.9204 44.9922 44.9922 34.9204 44.9922 22.4961C44.9922 10.0718 34.9204 0 22.4961 0C10.0718 0 0 10.0718 0 22.4961C0 34.9204 10.0718 44.9922 22.4961 44.9922Z" fill="#303030"/>
<path d="M34.1532 18.9662C33.4442 17.1117 32.1584 15.9896 31.0286 15.3195C29.7818 14.5792 28.3403 14.2364 26.9143 14.361C22.9558 14.7117 27.4442 18.5455 29.9922 19.8078C32.7818 21.1948 35.5636 22.6364 34.1532 18.9584V18.9662Z" fill="white"/>
<path d="M13.7143 23.7192V21.4283C13.7143 18.9192 15.1558 16.6049 17.4468 15.5686C20.8052 14.0413 25.4883 12.4829 30.7013 12.3894C31.1844 12.3816 31.4338 11.7894 31.0831 11.4465C28.574 8.95299 25.1143 7.40234 21.2883 7.40234C14.1818 7.40234 8.33766 12.74 7.51169 19.6283C7.33247 19.6127 7.16104 19.6205 6.98182 19.6517C5.22857 19.9946 4.27792 22.6595 4.86234 25.6049C5.43896 28.5504 7.33247 30.6543 9.08571 30.3036C10.839 29.9608 11.7896 27.2958 11.2052 24.3504C10.9714 23.1504 10.5117 22.0907 9.93507 21.2803C10.8857 21.9504 11.7584 23.1738 12.2649 24.701C13.161 27.3894 12.5844 29.9997 10.987 30.5296C10.9714 30.5296 10.9558 30.5296 10.9403 30.5374C13.4883 33.3816 17.174 35.1894 21.2961 35.1894C26.6104 35.1894 31.2156 32.2049 33.5532 27.8257C33.7636 27.4361 33.4675 26.9686 33.0312 26.9997C29.7117 27.2179 24.9195 27.6855 19.7766 28.7218C16.4494 29.392 13.7143 27.1244 13.7143 23.727V23.7192Z" fill="white"/>
<path d="M24.6468 44.0028C30.0779 44.0028 33.6779 41.2989 33.6779 41.2989C31.7377 36.8573 29.3688 35.2677 22.9636 36.0391C16.5039 36.8184 10.4416 33.6781 10.4416 33.6781C10.4416 33.6781 8.58701 32.6106 7.16104 33.1093C6.49091 33.343 5.90649 33.9586 5.47013 34.5352C9.88831 40.2937 16.8312 44.0106 24.6468 44.0106V44.0028Z" fill="white"/>
</svg>