<?xml version="1.0" encoding="UTF-8"?>
<svg id="Laag_1" data-name="Laag 1" xmlns="http://www.w3.org/2000/svg" viewBox="0 0 265.25 57.75">
  <defs>
    <style>
      .cls-1 {
        fill: #fff;
      }

      .cls-2 {
        fill: #1a2340;
      }

      .cls-3 {
        fill: #ee7151;
      }
    </style>
  </defs>
  <g>
    <path class="cls-2" d="m70.82,27.47c0-6.76,4.87-11.55,10.96-11.55,3.65,0,6.8,1.68,8.4,4.33-.04-1.55-.08-3.11-.08-4.75V6.17h2.69v32.35h-2.48v-4.12c-1.51,2.77-4.79,4.54-8.53,4.54-6.09,0-10.96-4.79-10.96-11.47Zm11.26,8.91c4.49,0,8.28-3.11,8.28-8.91s-3.78-8.99-8.28-8.99c-4.92,0-8.53,3.78-8.53,8.99s3.61,8.91,8.53,8.91Z"/>
    <path class="cls-2" d="m97.54,27.47c0-6.68,4.83-11.55,11.22-11.55s11.22,4.87,11.22,11.55-4.83,11.51-11.22,11.51-11.22-4.91-11.22-11.51Zm11.22,8.91c4.87,0,8.49-3.74,8.49-8.91s-3.61-8.99-8.49-8.99-8.48,3.78-8.48,8.99,3.61,8.91,8.48,8.91Z"/>
    <path class="cls-2" d="m125.27,18.85h-2.73v-2.52h2.73v-6.26l2.69-1.13v7.39h2.9v2.52h-2.9v19.66h-2.69v-19.66Z"/>
    <path class="cls-2" d="m142.91,15.79c3.15,0,5.46,1.26,6.72,3.23,1.26-1.97,3.57-3.23,6.76-3.23,5.29,0,8.53,3.53,8.53,9.49v13.23h-5.21v-13.36c0-2.81-1.34-4.49-3.66-4.49s-3.78,1.68-3.78,4.66v13.19h-5.21v-13.19c0-2.98-1.43-4.66-3.78-4.66s-3.65,1.68-3.65,4.49v13.36h-5.21v-13.23c0-5.97,3.19-9.49,8.49-9.49Z"/>
    <path class="cls-2" d="m178.79,39.02c-5.76,0-9.24-3.57-9.24-9.49v-13.23h5.21v13.07c0,3.11,1.47,4.79,4.03,4.79s4.03-1.68,4.03-4.79v-13.07h5.21v13.23c0,5.92-3.44,9.49-9.24,9.49Z"/>
    <path class="cls-2" d="m201.98,15.79c5.75,0,9.24,3.57,9.24,9.49v13.23h-5.21v-13.06c0-3.11-1.47-4.79-4.03-4.79s-4.03,1.68-4.03,4.79v13.06h-5.21v-13.23c0-5.92,3.45-9.49,9.24-9.49Z"/>
    <path class="cls-2" d="m215.01,27.42c0-6.85,5-11.55,11.05-11.55,2.65,0,5.12.92,6.76,2.6-.08-1.6-.13-3.28-.13-4.96v-7.44h5.21v32.43h-4.62l-.04-2.69c-1.6,2.02-4.28,3.11-7.18,3.11-6.05,0-11.05-4.75-11.05-11.51Zm11.72,6.72c3.53,0,6.34-2.48,6.34-6.72s-2.81-6.76-6.34-6.76c-3.74,0-6.51,2.73-6.51,6.76s2.77,6.72,6.51,6.72Z"/>
    <path class="cls-2" d="m241.98,27.42c0-6.76,5.12-11.64,11.64-11.64s11.64,4.87,11.64,11.64-5.12,11.68-11.64,11.68-11.64-4.92-11.64-11.68Zm11.64,6.76c3.65,0,6.43-2.77,6.43-6.76s-2.77-6.76-6.43-6.76-6.43,2.77-6.43,6.76,2.77,6.76,6.43,6.76Z"/>
  </g>
  <g>
    <circle class="cls-3" cx="28.87" cy="28.87" r="28.87"/>
    <g>
      <path class="cls-1" d="m43.83,24.34c-.91-2.38-2.56-3.82-4.01-4.68-1.6-.95-3.45-1.39-5.28-1.23-5.08.45.68,5.37,3.95,6.99,3.58,1.78,7.15,3.63,5.34-1.09Z"/>
      <path class="cls-1" d="m17.6,30.44v-2.94c0-3.22,1.85-6.19,4.79-7.52,4.31-1.96,10.32-3.96,17.01-4.08.62-.01.94-.77.49-1.21-3.22-3.2-7.66-5.19-12.57-5.19-9.12,0-16.62,6.85-17.68,15.69-.23-.02-.45-.01-.68.03-2.25.44-3.47,3.86-2.72,7.64.74,3.78,3.17,6.48,5.42,6.03,2.25-.44,3.47-3.86,2.72-7.64-.3-1.54-.89-2.9-1.63-3.94,1.22.86,2.34,2.43,2.99,4.39,1.15,3.45.41,6.8-1.64,7.48-.02,0-.04,0-.06.01,3.27,3.65,8,5.97,13.29,5.97,6.82,0,12.73-3.83,15.73-9.45.27-.5-.11-1.1-.67-1.06-4.26.28-10.41.88-17.01,2.21-4.27.86-7.78-2.05-7.78-6.41Z"/>
    </g>
    <path class="cls-1" d="m31.63,56.47c6.97,0,11.59-3.47,11.59-3.47-2.49-5.7-5.53-7.74-13.75-6.75-8.29,1-16.07-3.03-16.07-3.03,0,0-2.38-1.37-4.21-.73-.86.3-1.61,1.09-2.17,1.83,5.67,7.39,14.58,12.16,24.61,12.16Z"/>
  </g>
  <g>
    <path class="cls-2" d="m71.79,45.65h4.08v.97h-3.05v2.38h3.01v.97h-3.01v2.62h3.1v.97h-4.14v-7.92Z"/>
    <path class="cls-2" d="m78.7,50.69l-2.02-2.82h1.16l1.45,2.08,1.46-2.08h1.1l-1.97,2.81,2.05,2.9h-1.13l-1.51-2.16-1.48,2.16h-1.13l2.03-2.88Z"/>
    <path class="cls-2" d="m82.74,47.87h.89v.88c.41-.62,1.19-.98,2.04-.98,1.56,0,2.83,1.22,2.83,2.96s-1.27,2.96-2.83,2.96c-.8,0-1.54-.33-1.97-.89.02.42.03.85.03,1.26v1.65h-.99v-7.84Zm2.8,4.88c1.13,0,1.96-.84,1.96-2.03s-.82-2.04-1.96-2.04c-1.04,0-1.89.73-1.89,2.04s.85,2.03,1.89,2.03Z"/>
    <path class="cls-2" d="m89.63,45.24h.99v8.33h-.99v-8.33Z"/>
    <path class="cls-2" d="m91.76,50.73c0-1.73,1.27-2.99,2.94-2.99s2.93,1.26,2.93,2.99-1.28,2.97-2.93,2.97-2.94-1.25-2.94-2.97Zm2.94,2.03c1.1,0,1.92-.85,1.92-2.03s-.82-2.05-1.92-2.05-1.95.85-1.95,2.05.83,2.03,1.95,2.03Z"/>
    <path class="cls-2" d="m100.47,47.87h.64v.91h-.55c-.61,0-.85.23-.85.88v3.92h-.99v-3.91c0-1.23.58-1.79,1.76-1.79Z"/>
    <path class="cls-2" d="m101.45,50.74c0-1.71,1.21-2.98,2.86-2.98,1.45,0,2.74.98,2.71,3.09h-4.64c.05,1.12.83,1.96,2.01,1.96.83,0,1.51-.41,1.93-1.1l.69.51c-.5.78-1.36,1.47-2.64,1.47-1.75,0-2.93-1.26-2.93-2.94Zm4.6-.64c-.18-1.02-.9-1.5-1.75-1.5-.96,0-1.66.64-1.87,1.5h3.62Z"/>
    <path class="cls-2" d="m111.16,48.78h-.69v-.91h.69v-1.58l.99-.37v1.94h.73v.91h-.73v4.8h-.99v-4.8Z"/>
    <path class="cls-2" d="m113.95,45.24h.99v2.15c0,.38-.01.72-.02,1.07.32-.46.85-.72,1.53-.72,1.26,0,2,.88,2,2.39v3.45h-.99v-3.38c0-.98-.43-1.51-1.25-1.51s-1.26.52-1.26,1.51v3.38h-.99v-8.33Z"/>
    <path class="cls-2" d="m119.54,50.74c0-1.71,1.21-2.98,2.86-2.98,1.45,0,2.74.98,2.71,3.09h-4.64c.05,1.12.83,1.96,2.01,1.96.83,0,1.51-.41,1.93-1.1l.69.51c-.5.78-1.36,1.47-2.64,1.47-1.75,0-2.93-1.26-2.93-2.94Zm4.6-.64c-.18-1.02-.9-1.5-1.75-1.5-.96,0-1.66.64-1.87,1.5h3.62Z"/>
    <path class="cls-2" d="m128.29,47.87h1.05l1.34,4.38,1.44-4.38h.92l1.42,4.3,1.34-4.3h1.03l-1.89,5.7h-.91l-1.46-4.3-1.47,4.3h-.97l-1.83-5.7Z"/>
    <path class="cls-2" d="m137.17,50.73c0-1.73,1.27-2.99,2.94-2.99s2.93,1.26,2.93,2.99-1.28,2.97-2.93,2.97-2.94-1.25-2.94-2.97Zm2.94,2.03c1.1,0,1.92-.85,1.92-2.03s-.82-2.05-1.92-2.05-1.95.85-1.95,2.05.83,2.03,1.95,2.03Z"/>
    <path class="cls-2" d="m145.89,47.87h.64v.91h-.55c-.6,0-.85.23-.85.88v3.92h-.99v-3.91c0-1.23.58-1.79,1.76-1.79Z"/>
    <path class="cls-2" d="m147.42,45.24h.99v8.33h-.99v-8.33Z"/>
    <path class="cls-2" d="m149.55,50.72c0-1.74,1.26-2.96,2.83-2.96.8,0,1.53.32,1.96.88-.01-.39-.02-.8-.02-1.22v-2.17h.99v8.33h-.9v-.86c-.41.6-1.18.97-2.03.97-1.57,0-2.83-1.22-2.83-2.96Zm2.94,2.03c1.05,0,1.9-.72,1.9-2.03s-.85-2.04-1.9-2.04c-1.11,0-1.95.84-1.95,2.04s.83,2.03,1.95,2.03Z"/>
    <path class="cls-2" d="m159.15,50.73c0-1.73,1.27-2.99,2.94-2.99s2.93,1.26,2.93,2.99-1.28,2.97-2.93,2.97-2.94-1.25-2.94-2.97Zm2.94,2.03c1.1,0,1.92-.85,1.92-2.03s-.82-2.05-1.92-2.05-1.95.85-1.95,2.05.83,2.03,1.95,2.03Z"/>
    <path class="cls-2" d="m168.03,45.24h.29v.93h-.15c-.57,0-.84.24-.84.81v.89h.77v.91h-.77v4.8h-.99v-4.8h-.68v-.91h.68v-.97c0-1.04.59-1.65,1.7-1.65Z"/>
    <path class="cls-2" d="m171.27,45.65h1.07l1.66,6.23,1.89-6.23h.97l1.93,6.25,1.63-6.25h1.05l-2.14,7.92h-1.02l-1.94-6.21-1.93,6.21h-1.02l-2.16-7.92Z"/>
    <path class="cls-2" d="m181.68,50.74c0-1.71,1.21-2.98,2.86-2.98,1.45,0,2.74.98,2.71,3.09h-4.65c.05,1.12.83,1.96,2.01,1.96.83,0,1.51-.41,1.93-1.1l.69.51c-.5.78-1.36,1.47-2.64,1.47-1.75,0-2.93-1.26-2.93-2.94Zm4.6-.64c-.18-1.02-.9-1.5-1.75-1.5-.96,0-1.66.64-1.87,1.5h3.62Z"/>
    <path class="cls-2" d="m189.3,52.7v.88h-.9v-8.33h.99v2.13c0,.42-.01.85-.03,1.26.42-.55,1.17-.88,1.97-.88,1.56,0,2.83,1.22,2.83,2.96s-1.28,2.96-2.83,2.96c-.85,0-1.63-.38-2.03-.98Zm1.91.05c1.12,0,1.94-.84,1.94-2.03s-.82-2.04-1.94-2.04c-1.05,0-1.9.73-1.9,2.04s.85,2.03,1.9,2.03Z"/>
    <path class="cls-2" d="m195,51.41l.98-.28c.15,1,.82,1.56,1.69,1.56.92,0,1.53-.57,1.53-1.42s-.58-1.39-1.52-1.39h-.59v-.91h.43c.86,0,1.42-.51,1.42-1.25,0-.7-.54-1.2-1.32-1.2s-1.32.5-1.52,1.38l-.95-.24c.3-1.33,1.24-2.08,2.47-2.08,1.43,0,2.33.85,2.33,2.03,0,.78-.41,1.43-1.09,1.74.89.27,1.4,1.04,1.4,1.97,0,1.34-1.05,2.32-2.6,2.32-1.32,0-2.42-.75-2.66-2.22Z"/>
  </g>
</svg>