<svg width="50" height="50" viewBox="0 0 50 50" fill="none" xmlns="http://www.w3.org/2000/svg">
<path d="M24.9957 49.9913C38.8004 49.9913 49.9913 38.8004 49.9913 24.9957C49.9913 11.1909 38.8004 0 24.9957 0C11.1909 0 0 11.1909 0 24.9957C0 38.8004 11.1909 49.9913 24.9957 49.9913Z" fill="#EE7151"/>
<path d="M37.9481 21.0745C37.1602 19.0139 35.7317 17.7671 34.4762 17.0225C33.091 16.2 31.4892 15.8191 29.9048 15.9576C25.5065 16.3472 30.4936 20.6069 33.3247 22.0095C36.4243 23.5507 39.5152 25.1524 37.9481 21.0658V21.0745Z" fill="white"/>
<path d="M15.2379 26.3555V23.81C15.2379 21.0221 16.8396 18.4507 19.3851 17.2992C23.1167 15.6022 28.3201 13.8706 34.1123 13.7667C34.6491 13.7581 34.9262 13.1 34.5366 12.7191C31.7487 9.94853 27.9045 8.22559 23.6535 8.22559C15.7574 8.22559 9.26386 14.1563 8.34611 21.81C8.14697 21.7927 7.9565 21.8013 7.75736 21.836C5.80931 22.2169 4.75303 25.178 5.40238 28.4507C6.04308 31.7234 8.14697 34.0611 10.095 33.6715C12.0431 33.2905 13.0994 30.3295 12.45 27.0568C12.1903 25.7234 11.6794 24.5459 11.0387 23.6455C12.095 24.3901 13.0647 25.7494 13.6275 27.4464C14.6232 30.4334 13.9825 33.3338 12.2076 33.9226C12.1903 33.9226 12.1729 33.9226 12.1556 33.9312C14.9868 37.0914 19.082 39.1 23.6621 39.1C29.5669 39.1 34.6838 35.784 37.2812 30.9182C37.5149 30.4853 37.1859 29.9658 36.7011 30.0005C33.0128 30.2429 27.6881 30.7624 21.9738 31.9139C18.2768 32.6585 15.2379 30.139 15.2379 26.3641V26.3555Z" fill="white"/>
<path d="M27.3855 48.892C33.4201 48.892 37.4201 45.8876 37.4201 45.8876C35.2643 40.9526 32.6322 39.1863 25.5154 40.0435C18.3379 40.9093 11.6019 37.4201 11.6019 37.4201C11.6019 37.4201 9.54133 36.234 7.95691 36.7881C7.21232 37.0478 6.56297 37.7318 6.07812 38.3725C10.9872 44.7708 18.7015 48.9006 27.3855 48.9006V48.892Z" fill="white"/>
</svg>
