<svg width="21" height="18" viewBox="0 0 21 18" fill="none" xmlns="http://www.w3.org/2000/svg">
<g clip-path="url(#clip0_4948_955)">
<path d="M15.5821 5.48062C15.206 5.26569 14.7224 5.26569 14.2925 5.48062L11.2836 7.25375L9.24179 8.38211L6.28657 10.1552C5.91045 10.3702 5.42687 10.3702 4.99702 10.1552L2.68657 8.75823C2.31045 8.5433 2.04179 8.11345 2.04179 7.62987V4.9433C2.04179 4.51345 2.25672 4.0836 2.68657 3.81495L4.99702 2.47166C5.37313 2.25674 5.85672 2.25674 6.28657 2.47166L8.59702 3.86868C8.97313 4.0836 9.24179 4.51345 9.24179 4.99704V6.77017L11.2836 5.58808V3.76121C11.2836 3.33136 11.0687 2.90151 10.6388 2.63286L6.3403 0.107483C5.96418 -0.107442 5.4806 -0.107442 5.05075 0.107483L0.644776 2.68659C0.214925 2.90151 0 3.33136 0 3.76121V8.81196C0 9.24181 0.214925 9.67166 0.644776 9.94032L4.99702 12.4657C5.37313 12.6806 5.85672 12.6806 6.28657 12.4657L9.24179 10.7463L11.2836 9.5642L14.2388 7.8448C14.6149 7.62987 15.0985 7.62987 15.5284 7.8448L17.8388 9.18808C18.2149 9.40301 18.4836 9.83286 18.4836 10.3164V13.003C18.4836 13.4329 18.2687 13.8627 17.8388 14.1314L15.5821 15.4746C15.206 15.6896 14.7224 15.6896 14.2925 15.4746L11.9821 14.1314C11.606 13.9164 11.3373 13.4866 11.3373 13.003V11.2836L9.29552 12.4657V14.2388C9.29552 14.6687 9.51045 15.0985 9.9403 15.3672L14.2925 17.8926C14.6687 18.1075 15.1522 18.1075 15.5821 17.8926L19.9343 15.3672C20.3104 15.1523 20.5791 14.7224 20.5791 14.2388V9.13435C20.5791 8.7045 20.3642 8.27465 19.9343 8.00599L15.5821 5.48062Z" fill="#303030"/>
</g>
<defs>
<clipPath id="clip0_4948_955">
<rect width="20.6328" height="18" fill="white"/>
</clipPath>
</defs>
</svg>
