<svg width="18" height="18" viewBox="0 0 18 18" fill="none" xmlns="http://www.w3.org/2000/svg">
<path d="M9 18C13.9706 18 18 13.9706 18 9C18 4.02944 13.9706 0 9 0C4.02944 0 0 4.02944 0 9C0 13.9706 4.02944 18 9 18Z" fill="#303030"/>
<path d="M9.95929 9.82951V9.82806C9.89707 9.83241 9.57585 9.85122 8.86106 9.85122C8.28951 9.85122 7.88871 9.8353 7.74691 9.82806V9.82951C5.549 9.73257 3.90961 9.35057 3.90961 8.89189C3.90961 8.43466 5.55044 8.05122 7.74691 7.95427V9.44897C7.89015 9.45909 8.30253 9.48369 8.87118 9.48369C9.55414 9.48369 9.89562 9.45475 9.95929 9.44897V7.95572C12.1529 8.05411 13.7879 8.4361 13.7879 8.89334C13.7879 9.35057 12.1514 9.73257 9.95929 9.83096M9.95929 7.80089V6.46392H13.0196V4.42517H4.68806V6.46392H7.74835V7.80089C5.26105 7.9152 3.3916 8.40717 3.3916 8.99752C3.3916 9.58787 5.2625 10.0798 7.74835 10.1956V14.4814H9.96073V10.1956C12.4437 10.0813 14.3102 9.58932 14.3102 8.99896C14.3102 8.41006 12.4437 7.91665 9.96073 7.80234" fill="white"/>
</svg>
