<svg width="18" height="18" viewBox="0 0 18 18" fill="none" xmlns="http://www.w3.org/2000/svg">
<g clip-path="url(#clip0_4945_834)">
<path fill-rule="evenodd" clip-rule="evenodd" d="M17.1788 0.227992C17.2509 0.295138 17.3091 0.375842 17.3501 0.465492C17.391 0.555143 17.4138 0.65198 17.4173 0.75047C17.4208 0.84896 17.4048 0.94717 17.3704 1.03949C17.3359 1.1318 17.2835 1.21642 17.2163 1.28849L11.1143 7.83224L17.8493 16.7722C17.933 16.8836 17.9841 17.0161 17.9968 17.1549C18.0094 17.2937 17.9832 17.4332 17.9209 17.5579C17.8587 17.6826 17.763 17.7875 17.6445 17.8608C17.526 17.9341 17.3894 17.973 17.25 17.973H13.1415C13.0254 17.9731 12.9108 17.9461 12.8068 17.8943C12.7028 17.8425 12.6122 17.7673 12.5423 17.6745L7.80229 11.3842L1.88179 17.7345C1.81462 17.8065 1.73392 17.8646 1.64429 17.9055C1.55466 17.9464 1.45786 17.9692 1.35942 17.9726C1.26098 17.9761 1.16282 17.9601 1.07055 17.9256C0.978283 17.8911 0.893712 17.8388 0.821666 17.7716C0.749619 17.7044 0.691508 17.6237 0.650652 17.5341C0.609795 17.4445 0.586991 17.3477 0.583544 17.2492C0.580097 17.1508 0.596073 17.0526 0.63056 16.9604C0.665047 16.8681 0.717369 16.7835 0.784541 16.7115L6.88654 10.1677L0.151541 1.22774C0.0678307 1.11642 0.0167743 0.983985 0.00409226 0.84528C-0.00858973 0.706574 0.0176038 0.567077 0.0797378 0.44242C0.141872 0.317762 0.237491 0.21287 0.355882 0.139496C0.474272 0.0661221 0.610757 0.0271656 0.750041 0.0269917H4.85929C4.97534 0.0270493 5.0898 0.0540384 5.19366 0.105835C5.29751 0.157632 5.38793 0.232823 5.45779 0.325492L10.1978 6.61574L16.1175 0.265492C16.1847 0.193355 16.2654 0.135158 16.355 0.0942288C16.4447 0.0532997 16.5415 0.0304404 16.64 0.0269577C16.7385 0.0234751 16.8367 0.0394373 16.929 0.073932C17.0214 0.108427 17.106 0.160777 17.178 0.227992H17.1788ZM9.56629 8.27099C9.54514 8.24653 9.5256 8.22073 9.50779 8.19374L4.48504 1.52624H2.25379L13.515 16.4737H15.7463L9.56629 8.27099Z" fill="#303030"/>
</g>
<defs>
<clipPath id="clip0_4945_834">
<rect width="18" height="18" fill="white"/>
</clipPath>
</defs>
</svg>
